<svg width="227" height="229" viewBox="0 0 227 229" fill="none" xmlns="http://www.w3.org/2000/svg">
<path d="M144.861 136.031C152.661 142.3 161.596 135.565 165.088 131.414C168.057 127.487 172.175 118.073 164.9 111.842C155.807 104.053 145.9 108.363 142.745 111.992C136.329 119.374 135.111 128.194 144.861 136.031Z" fill="#D9D9D9"/>
<path d="M142.745 111.992C136.329 119.374 135.111 128.194 144.861 136.031C152.661 142.3 161.596 135.565 165.088 131.414C168.057 127.487 172.175 118.073 164.9 111.842C155.807 104.053 145.9 108.363 142.745 111.992ZM142.745 111.992L124.54 96.1669C123.209 94.1771 121.577 89.7089 125.693 87.7548" stroke="black" stroke-width="0.75"/>
<path d="M164.885 131.649L166.623 132.056C164.993 135.558 163.484 141.135 170.496 135.422L171.306 137.231" stroke="black" stroke-width="0.75"/>
<path d="M121.407 21.5594L119.637 25.6002L105.226 30.6805L102.721 22.8661C105.55 19.9014 111.417 13.3171 112.253 10.6969C113.09 8.07681 115.93 8.0046 117.246 8.29601L121.407 21.5594Z" fill="#494949" stroke="black" stroke-width="0.75"/>
<path d="M126.103 19.8411L121.405 21.5686L117.349 8.91958L121.649 7.71739L126.103 19.8411Z" fill="#D9D9D9" stroke="black" stroke-width="0.75"/>
<path d="M108.531 20.5982L102.761 22.5561L104.306 26.9969C103.546 26.4664 101.744 24.9028 100.609 22.8931C96.7426 15.1739 104.393 11.6545 105.275 11.3752C106.157 11.0959 117.353 8.04357 116.911 16.8413C116.558 23.8794 111.177 22.2785 108.531 20.5982Z" fill="#464646"/>
<path d="M105.252 29.7187L104.306 26.9969M104.306 26.9969L102.761 22.5561L108.531 20.5982C111.177 22.2785 116.558 23.8794 116.911 16.8413C117.353 8.04357 106.157 11.0959 105.275 11.3752C104.393 11.6545 96.7426 15.1739 100.609 22.8931C101.744 24.9028 103.546 26.4664 104.306 26.9969Z" stroke="black" stroke-width="0.75"/>
<path d="M134.901 43.3999L136.642 48.2834L120.024 58.7097C114.072 58.359 104.025 56.3777 111.451 51.2573L107.612 50.5932L102.135 37.1731L104.103 31.0976C109.382 26.2021 116.478 25.1961 119.367 25.305L125.243 29.3086L131.571 43.8752C132.871 43.6481 134.005 43.4922 134.901 43.3999Z" fill="#252525"/>
<path d="M111.451 51.2573C104.025 56.3777 114.072 58.359 120.024 58.7097L136.642 48.2834L134.901 43.3999C134.005 43.4922 132.871 43.6481 131.571 43.8752M111.451 51.2573C117.467 47.1094 126.026 44.8442 131.571 43.8752M111.451 51.2573L107.612 50.5932L102.135 37.1731L104.103 31.0976C109.382 26.2021 116.478 25.1961 119.367 25.305L125.243 29.3086L131.571 43.8752" stroke="black" stroke-width="0.75"/>
<path d="M93.6295 90.2859L101.426 82.1864L108.199 66.5729L105.082 66.0137L90.0355 83.7912L89.0433 88.275L93.6295 90.2859Z" fill="#CFCFCF" stroke="black" stroke-width="0.75"/>
<path d="M116.892 41.9326C112.128 43.5093 109.314 46.4832 108.503 47.7731L104.58 37.9127C106.023 34.0067 110.714 32.4165 112.879 32.1096L116.892 41.9326Z" fill="#D9D9D9" stroke="black" stroke-width="0.75"/>
<path d="M80.5228 37.0966L108.89 61.7554L107.401 63.4683L105.911 65.1813L104.422 66.8942L102.933 68.6071L101.444 70.32L99.9554 72.033L98.4664 73.7459L96.9773 75.4588L95.5099 77.1469L94.0425 78.835L92.575 80.5231L91.1076 82.2112L89.5538 83.9986L78.3749 75.7337L77.8573 73.831L76.7395 69.7212L75.6837 65.8397L74.628 61.9583L73.5722 58.0768L72.5165 54.1953L68.6107 50.8L70.0997 49.0871L71.5887 47.3742L73.0777 45.6612L74.5668 43.9483L76.0558 42.2354L77.5448 40.5225L79.0338 38.8095L80.5228 37.0966Z" fill="#B4B4B4"/>
<path d="M89.5538 83.9986L78.3749 75.7337L77.8573 73.831M89.5538 83.9986L91.1076 82.2112M89.5538 83.9986L77.8573 73.831M72.5165 54.1953L68.6107 50.8L70.0997 49.0871M72.5165 54.1953L96.9773 75.4588M72.5165 54.1953L73.5722 58.0768M91.1076 82.2112L76.7395 69.7212M91.1076 82.2112L92.575 80.5231M76.7395 69.7212L75.6837 65.8397M76.7395 69.7212L77.8573 73.831M74.628 61.9583L94.0425 78.835M74.628 61.9583L73.5722 58.0768M74.628 61.9583L75.6837 65.8397M94.0425 78.835L95.5099 77.1469M94.0425 78.835L92.575 80.5231M96.9773 75.4588L98.4664 73.7459M96.9773 75.4588L95.5099 77.1469M74.5668 43.9483L102.933 68.6071M74.5668 43.9483L76.0558 42.2354M74.5668 43.9483L73.0777 45.6612M102.933 68.6071L104.422 66.8942M102.933 68.6071L101.444 70.32M71.5887 47.3742L99.9554 72.033M71.5887 47.3742L73.0777 45.6612M71.5887 47.3742L70.0997 49.0871M99.9554 72.033L101.444 70.32M99.9554 72.033L98.4664 73.7459M77.5448 40.5225L105.911 65.1813M77.5448 40.5225L79.0338 38.8095M77.5448 40.5225L76.0558 42.2354M105.911 65.1813L107.401 63.4683M105.911 65.1813L104.422 66.8942M107.401 63.4683L108.89 61.7554L80.5228 37.0966L79.0338 38.8095M107.401 63.4683L79.0338 38.8095M76.0558 42.2354L104.422 66.8942M101.444 70.32L73.0777 45.6612M70.0997 49.0871L98.4664 73.7459M95.5099 77.1469L73.5722 58.0768M75.6837 65.8397L92.575 80.5231" stroke="black" stroke-width="0.75"/>
<path d="M66.7484 78.4185C64.1408 73.7304 61.8381 63.2365 73.4881 58.7659L74.3777 61.8205L75.2234 64.7249L76.2588 68.2802L77.0827 71.1095L77.9066 73.9387C76.272 73.68 73.0905 74.0641 73.4422 77.6706C73.5028 78.2922 73.4143 78.759 73.2141 79.0995C72.9965 79.4696 72.6468 79.6904 72.2132 79.7984C71.6719 79.9334 70.9997 79.8925 70.2903 79.7473C70.6964 82.4456 70.6205 83.9027 68.8835 79.3504C68.1039 79.0778 67.3523 78.7368 66.7484 78.4185Z" fill="#D9D9D9"/>
<path d="M74.3777 61.8205L73.4881 58.7659C61.8381 63.2365 64.1408 73.7304 66.7484 78.4185C68.2708 79.2209 70.7318 80.1676 72.2132 79.7984M74.3777 61.8205C70.781 62.66 64.4731 66.8636 68.0144 76.9621C71.5558 87.0605 70.5413 80.4952 69.5914 75.9502C68.8137 72.8561 68.8513 66.2793 75.2234 64.7249M74.3777 61.8205L75.2234 64.7249M75.2234 64.7249L76.2588 68.2802M76.2588 68.2802C74.1421 68.2944 70.3696 70.6179 72.2132 79.7984M76.2588 68.2802L77.0827 71.1095M72.2132 79.7984C72.6468 79.6904 72.9965 79.4696 73.2141 79.0995M77.0827 71.1095L77.9066 73.9387C76.272 73.68 73.0905 74.0641 73.4422 77.6706C73.5028 78.2922 73.4143 78.759 73.2141 79.0995M77.0827 71.1095C74.7818 71.2472 70.7869 73.0379 73.2141 79.0995" stroke="black" stroke-width="0.75"/>
<path d="M64.1954 81.8961L70.4844 87.363L76.2678 80.7099L69.9788 75.243L64.1954 81.8961Z" fill="#525252" stroke="black" stroke-width="0.75"/>
<path d="M63.4223 95.7523L65.5076 97.565L65.7665 97.2671L76.3839 85.0532L74.2986 83.2405L63.4223 95.7523Z" fill="#7E7E7E" stroke="black" stroke-width="0.75"/>
<path d="M138.977 167.479C138.205 175.119 147.316 175.601 149.211 170.681L153.106 154.367L145.064 151.385L138.977 167.479Z" fill="#CFCFCF" stroke="black" stroke-width="0.75"/>
<path d="M38.0308 124.756L36.0448 123.03L39.9579 118.528C37.5296 116.107 33.6788 110.001 37.7024 104.945C41.726 99.8885 46.9454 100.195 49.8582 102.727L57.0078 108.942L54.2265 110.069C52.1757 108.306 48.08 104.773 48.103 104.746C48.1318 104.713 43.0231 101.899 39.9201 106.873C37.4377 110.852 40.0044 115.043 41.598 116.641L46.3744 111.147L48.3604 112.873L38.0308 124.756Z" fill="#959191"/>
<path d="M39.9579 118.528L36.0448 123.03L38.0308 124.756L48.3604 112.873L46.3744 111.147L41.598 116.641M39.9579 118.528C37.5296 116.107 33.6788 110.001 37.7024 104.945C41.726 99.8885 46.9454 100.195 49.8582 102.727L57.0078 108.942L54.2265 110.069C52.1757 108.306 48.08 104.773 48.103 104.746C48.1318 104.713 43.0231 101.899 39.9201 106.873C37.4377 110.852 40.0044 115.043 41.598 116.641M39.9579 118.528L41.598 116.641" stroke="black" stroke-width="0.75"/>
<path d="M37.0333 132.548L41.4536 136.39L61.839 114.014L56.754 109.593L51.1509 110.401L36.4122 126.952L37.0333 132.548Z" fill="#28342F" stroke="black" stroke-width="0.75"/>
<path d="M41.5215 136.452L55.1256 148.277L61.0337 146.963L73.8091 132.266L73.109 127.59L57.5189 114.038L54.7433 114.356L41.3061 129.814L41.5215 136.452Z" fill="#4D5E58" stroke="black" stroke-width="0.75"/>
<path d="M67.5436 132.451L58.2498 143.142L46.6648 133.072L55.9586 122.38L67.5436 132.451Z" fill="#D9D9D9" stroke="black" stroke-width="0.75"/>
<path d="M58.2917 116.638L70.4062 127.169L89.5118 105.19L93.4131 98.2958L75.472 86.2447L56.7693 107.76L58.2917 116.638Z" fill="#2C2C2C" stroke="black" stroke-width="0.75"/>
<path d="M61.2076 107.185L57.4383 111.521L56.8851 107.611L60.1365 103.871L63.8195 99.6343L67.5025 95.3975L89.9883 92.8614L92.6694 95.1921L95.3505 97.5227L92.9335 100.303L91.0345 102.488L83.0733 105.563L61.2076 107.185Z" fill="#494949"/>
<path d="M60.1365 103.871L56.8851 107.611L57.4383 111.521L61.2076 107.185L83.0733 105.563L91.0345 102.488L92.9335 100.303M60.1365 103.871L92.9335 100.303M60.1365 103.871L63.8195 99.6343M92.9335 100.303L95.3505 97.5227L92.6694 95.1921M63.8195 99.6343L67.5025 95.3975L89.9883 92.8614L92.6694 95.1921M63.8195 99.6343L92.6694 95.1921" stroke="black" stroke-width="0.75"/>
<path d="M70.4067 127.16L83.8333 138.831C88.1796 142.609 99.6263 134.944 104.806 130.639L102.399 121.038L89.167 105.578L70.4067 127.16Z" fill="#525252" stroke="black" stroke-width="0.75"/>
<path d="M89.3712 120.523L91.3421 118.256L93.3131 115.988L95.9032 118.24L98.4933 120.491L100.57 122.297L104.7 125.886L101.702 127.262L98.7054 128.637L96.6283 126.832L94.5513 125.026L91.9612 122.775L89.3712 120.523Z" fill="#474747"/>
<path d="M91.3421 118.256L89.3712 120.523L91.9612 122.775M91.3421 118.256L93.3131 115.988L95.9032 118.24M91.3421 118.256L93.9322 120.507M101.702 127.262L104.7 125.886L100.57 122.297M101.702 127.262L98.7054 128.637L96.6283 126.832M101.702 127.262L98.5993 124.564M96.5223 122.759L94.5513 125.026M96.5223 122.759L98.4933 120.491M96.5223 122.759L93.9322 120.507M96.5223 122.759L98.5993 124.564M94.5513 125.026L91.9612 122.775M94.5513 125.026L96.6283 126.832M98.4933 120.491L95.9032 118.24M98.4933 120.491L100.57 122.297M95.9032 118.24L93.9322 120.507M93.9322 120.507L91.9612 122.775M96.6283 126.832L98.5993 124.564M98.5993 124.564L100.57 122.297" stroke="black" stroke-width="0.75"/>
<path d="M89.2715 120.429L86.0939 117.666L92.7118 110.053L93.7694 115.254L89.2715 120.429Z" fill="#232323" stroke="black" stroke-width="0.75"/>
<path d="M86.5146 137.91L74.0359 127.062L81.2292 118.787L95.5615 131.246C96.148 133.249 95.8783 136.619 91.783 137.701L91.1624 138.58L90.4413 137.953C89.3493 138.085 88.0514 138.084 86.5146 137.91Z" fill="#979797"/>
<path d="M74.0359 127.062L86.5146 137.91C95.6145 138.94 96.3375 133.897 95.5615 131.246L81.2292 118.787M74.0359 127.062L81.2292 118.787M74.0359 127.062L82.755 131.271M81.2292 118.787L85.8913 127.663M82.755 131.271L85.8913 127.663M82.755 131.271L91.1624 138.58L93.9346 134.655L85.8913 127.663" stroke="black" stroke-width="0.75"/>
<path d="M84.1049 185.678C80.5657 189.482 82.2369 193.197 83.5149 194.579C80.4414 194.639 72.8376 193.398 67.0108 187.961C61.1839 182.524 59.3214 174.768 59.1185 171.57C61.9783 174.056 64.948 171.059 66.0754 169.249C73.5599 173.141 87.6441 181.874 84.1049 185.678Z" fill="#696666" stroke="black" stroke-width="0.75"/>
<path d="M93.7865 187.634L100.174 180.286C100.883 168.485 101.071 145.989 96.1577 150.411C91.2442 154.834 83.6067 143.123 80.4021 136.715L60.9513 159.091L62.1643 167.99C74.5857 171.35 83.0514 183.048 85.7315 188.477L93.7865 187.634Z" fill="#969696" stroke="black" stroke-width="0.75"/>
<path d="M99.7217 186.295L103.405 182.058L97.1694 179.137L95.1264 181.487L99.7217 186.295Z" fill="#D9D9D9"/>
<path d="M97.9735 186.635L95.9306 188.985L91.76 185.359L94.1481 182.612L97.9735 186.635Z" fill="#D9D9D9"/>
<path d="M99.7217 186.295L103.405 182.058L97.1694 179.137L95.1264 181.487L99.7217 186.295Z" stroke="black" stroke-width="0.75"/>
<path d="M97.9735 186.635L95.9306 188.985L91.76 185.359L94.1481 182.612L97.9735 186.635Z" stroke="black" stroke-width="0.75"/>
<path d="M79.8691 153.105C82.744 156.162 84.4359 154.247 84.9226 152.907C83.4817 150.086 80.6552 143.898 80.8759 141.719C81.1517 138.995 76.4595 139.914 77.5851 142.229C78.4856 144.081 76.7376 145.076 75.751 145.342L70.6172 147.504L63.9029 154.626C62.3972 156.804 61.3808 160.348 69.3612 157.104C79.3366 153.049 76.2755 149.284 79.8691 153.105Z" fill="#505050" stroke="black" stroke-width="0.75"/>
<path d="M79.6392 157.373C81.3727 156.555 81.8577 155.311 81.8835 154.791L83.3685 154.687C84.2092 157.463 81.8525 158.793 80.569 159.111L53.5478 171.477L48.3587 151.508C55.7491 148.421 71.0162 141.113 72.744 140.57C74.4718 140.026 75.4248 141.118 75.6854 141.732C76.5122 143.923 78.2152 148.569 78.4134 149.624C78.6116 150.68 77.1532 151.609 76.3993 151.941L67.9462 155.983L70.9587 161.275C73.1299 160.315 77.9057 158.19 79.6392 157.373Z" fill="#494949" stroke="black" stroke-width="0.75"/>
<path d="M86.7582 153.808L95.6604 150.854L99.0587 138.989L95.7312 134.528L81.7054 140.234L80.0482 143.21L83.1232 152.508L86.7582 153.808Z" fill="#989898" stroke="black" stroke-width="0.75"/>
<path d="M93.3632 90.0027C93.2515 86.9389 93.8816 83.7068 96.8311 84.9325C101.698 86.9549 101.15 88.4543 100.2 89.5466C99.2509 90.6389 104.543 109.419 88.6335 102.853C86.6292 104.579 81.962 104.796 79.5465 102.008C76.2874 102.17 70.7264 100.001 74.5558 90.0342C77.3509 82.7591 72.9323 81.3395 69.7271 83.2216C71.977 78.9399 77.5845 71.8162 82.0162 77.5747C87.5558 84.7728 92.0546 81.5358 88.8641 87.4792C90.376 86.8005 92.5744 87.3802 93.3632 90.0027Z" fill="#DDDDDD"/>
<path d="M86.0123 97.3781C86.233 100.534 88.3938 97.6468 89.1287 95.2638C89.5465 93.9091 88.9358 89.3998 87.3397 89.6341M87.3397 89.6341C86.3749 89.7757 80.4578 87.7747 78.7825 93.1272C77.4289 97.4517 78.0631 100.297 79.5465 102.008M87.3397 89.6341C87.3989 88.6182 88.026 87.8554 88.8641 87.4792M79.5465 102.008C81.962 104.796 86.6292 104.579 88.6335 102.853C104.543 109.419 99.2509 90.6389 100.2 89.5466C101.15 88.4543 101.698 86.9549 96.8311 84.9325C92.9377 83.3146 93.0858 89.4638 93.6466 92.7407C93.8749 87.8096 90.8043 86.6083 88.8641 87.4792M79.5465 102.008C76.2874 102.17 70.7264 100.001 74.5558 90.0342C77.3509 82.7591 72.9323 81.3395 69.7271 83.2216C71.977 78.9399 77.5845 71.8162 82.0162 77.5747C87.5558 84.7728 92.0546 81.5358 88.8641 87.4792" stroke="black" stroke-width="0.75"/>
<path d="M124.601 181.026C124.211 183.302 122.276 187.966 117.656 188.413C115.678 188.605 113.443 187.96 111.414 186.77C110.735 186.372 110.08 185.912 109.464 185.403C108.864 184.907 108.302 184.362 107.795 183.781C105.835 181.536 104.682 178.731 105.251 175.944C106.307 170.772 110.702 153.273 112.767 145.17L122.277 152.681C118.108 160.582 110.833 176.797 113.736 180.805C114.469 179.814 115.134 178.439 115.687 176.706L117.425 177.548L119.162 178.39L121.125 179.342L123.047 180.273L124.601 181.026Z" fill="#CCCCCC"/>
<path d="M105.251 175.944C106.307 170.772 110.702 153.273 112.767 145.17L122.277 152.681C117.94 160.901 110.24 178.119 114.138 181.229M105.251 175.944C104.682 178.731 105.835 181.536 107.795 183.781M105.251 175.944C106.211 178.689 107.314 180.559 108.454 181.618C111.097 184.071 113.941 182.17 115.687 176.706L117.425 177.548L119.162 178.39M123.047 180.273L124.601 181.026C124.211 183.302 122.276 187.966 117.656 188.413C115.678 188.605 113.443 187.96 111.414 186.77M123.047 180.273C122.37 183.615 119.095 189.592 111.414 186.77M123.047 180.273L121.125 179.342M111.414 186.77C110.735 186.372 110.08 185.912 109.464 185.403M121.125 179.342C120.397 182.631 117.045 188.448 109.464 185.403M121.125 179.342L119.162 178.39M109.464 185.403C108.864 184.907 108.302 184.362 107.795 183.781M119.162 178.39C118.224 181.809 114.638 187.674 107.795 183.781" stroke="black" stroke-width="0.75"/>
<path d="M111.024 174.096C110.634 176.372 108.699 181.036 104.08 181.484C102.101 181.675 99.8667 181.03 97.8375 179.84C97.1588 179.442 96.5031 178.983 95.8875 178.473C95.2875 177.977 94.7256 177.433 94.2179 176.851C92.2587 174.606 91.1052 171.801 91.6741 169.014C92.73 163.842 97.125 146.343 99.1905 138.24L108.7 145.751C104.531 153.653 97.256 169.867 100.159 173.875C100.893 172.884 101.557 171.51 102.111 169.777L103.848 170.619L105.585 171.461L107.549 172.412L109.47 173.343L111.024 174.096Z" fill="#CCCCCC"/>
<path d="M91.6741 169.014C92.73 163.842 97.125 146.343 99.1905 138.24L108.7 145.751C104.363 153.972 96.6635 171.19 100.562 174.3M91.6741 169.014C91.1052 171.801 92.2587 174.606 94.2179 176.851M91.6741 169.014C92.6346 171.759 93.7373 173.629 94.8778 174.688C97.5201 177.141 100.365 175.241 102.111 169.777L103.848 170.619L105.585 171.461M109.47 173.343L111.024 174.096C110.634 176.372 108.699 181.036 104.08 181.484C102.101 181.675 99.8667 181.03 97.8375 179.84M109.47 173.343C108.793 176.685 105.519 182.663 97.8375 179.84M109.47 173.343L107.549 172.412M97.8375 179.84C97.1588 179.442 96.5031 178.983 95.8875 178.473M107.549 172.412C106.82 175.701 103.468 181.518 95.8875 178.473M107.549 172.412L105.585 171.461M95.8875 178.473C95.2875 177.977 94.7256 177.433 94.2179 176.851M105.585 171.461C104.648 174.88 101.061 180.745 94.2179 176.851" stroke="black" stroke-width="0.75"/>
<path d="M111.182 174.105L113.913 175.375L115.038 169.669L112.278 168.432L111.182 174.105Z" fill="#CCCCCC" stroke="black" stroke-width="0.75"/>
<path d="M112.533 168.555L111.206 174.026L102.789 170.138L99.3399 168.825L100.555 163.082L104.318 164.436L112.533 168.555Z" fill="#B7B7B7"/>
<path d="M102.789 170.138L111.206 174.026L112.533 168.555L104.318 164.436M102.789 170.138L104.318 164.436M102.789 170.138L99.3399 168.825L100.555 163.082L104.318 164.436" stroke="black" stroke-width="0.75"/>
<path d="M134.244 167.36L131.465 176.974L104.495 164.28L97.0481 161.816L104.68 132.246L112.423 134.503L134.244 167.36Z" fill="#EEEEEE"/>
<path d="M104.495 164.28L131.465 176.974L134.244 167.36L112.423 134.503M104.495 164.28L112.423 134.503M104.495 164.28L97.0481 161.816L104.68 132.246L112.423 134.503" stroke="black" stroke-width="0.75"/>
<path d="M129.628 170.269L130.759 166.429L133.868 157.102L112.489 148.338C112.115 149.815 111.333 153.064 111.192 154.243C111.05 155.421 111.914 156.42 112.363 156.772L119.279 159.646C119.154 160.08 118.695 161.602 117.858 164.222C117.022 166.842 117.901 167.939 118.445 168.16C120.416 169.079 124.839 171.127 126.762 171.962C128.686 172.797 129.475 171.182 129.628 170.269Z" fill="#D9D9D9" stroke="black" stroke-width="0.75"/>
<path d="M138.132 167.373C145.394 166.666 146.227 158.662 145.736 154.748C147.212 140.643 130.044 142.538 121.276 145.249C117.597 139.832 107.095 144.699 106.701 148.245C106.224 152.537 107.708 153.304 112.138 154.424C116.569 155.544 116.736 156.154 119.354 160.697C121.449 164.33 126.134 164.284 128.215 163.807C129.723 165.934 132.823 167.89 138.132 167.373Z" fill="#808080"/>
<path d="M132.357 155.031C129.518 156.224 127.947 157.764 127.19 159.838C126.876 160.699 127.144 162.296 128.215 163.807M128.215 163.807C129.723 165.934 132.823 167.89 138.132 167.373C145.394 166.666 146.227 158.662 145.736 154.748C147.212 140.643 130.044 142.538 121.276 145.249M128.215 163.807C126.134 164.284 121.449 164.33 119.354 160.697C116.736 156.154 116.569 155.544 112.138 154.424C107.708 153.304 106.224 152.537 106.701 148.245C107.095 144.699 117.597 139.832 121.276 145.249M120.814 155.341C121.334 155.076 122.407 153.669 122.534 150.153C122.523 147.989 122.051 146.391 121.276 145.249" stroke="black" stroke-width="0.75"/>
<path d="M100.52 91.4412L99.587 90.1074L107.139 85.6312L119.01 102.459L120.386 104.352L112.559 109.345L111.232 107.262L110.324 105.833L100.52 91.4412Z" fill="#9D9D9D"/>
<path d="M119.01 102.459L107.139 85.6312L99.587 90.1074L100.52 91.4412L110.324 105.833L111.232 107.262M119.01 102.459L111.232 107.262M119.01 102.459L120.386 104.352L112.559 109.345L111.232 107.262" stroke="black" stroke-width="0.75"/>
<path d="M87.3559 151.713L95.7919 148.76L93.3689 140.784L84.4725 144.267L87.3559 151.713Z" fill="#D9D9D9" stroke="black" stroke-width="0.75"/>
<path d="M99.9872 111.375C93.3544 115.663 98.697 120.636 101.757 121.573C103.063 122.165 104.823 123.273 101.419 122.964C98.0154 122.655 95.4324 119.445 94.5664 117.879C94.338 117.297 94.075 116.627 93.789 115.898C93.3116 114.681 92.7702 113.298 92.2195 111.888C91.7094 110.582 91.1914 109.253 90.7087 108.01C90.3488 107.084 90.0086 106.205 89.7061 105.42C89.1888 104.078 88.7818 103.009 88.5751 102.443C87.8058 100.333 89.1414 98.5377 89.9054 97.904L101.086 91.5263L102.815 94.0836L104.595 96.716L106.527 99.5741L108.255 102.131L110.518 105.478L99.9872 111.375Z" fill="#999999"/>
<path d="M102.815 94.0836L101.086 91.5263L89.9054 97.904C89.1414 98.5377 87.8058 100.333 88.5751 102.443C88.7818 103.009 89.1888 104.078 89.7061 105.42M102.815 94.0836L91.6383 100.456C90.7262 100.993 89.0629 102.737 89.7061 105.42M102.815 94.0836L104.595 96.716M89.7061 105.42C90.0086 106.205 90.3488 107.084 90.7087 108.01M90.7087 108.01C90.5627 106.975 90.7969 104.606 92.9022 103.415C95.0074 102.223 101.574 98.4523 104.595 96.716M90.7087 108.01C91.1914 109.253 91.7094 110.582 92.2195 111.888M104.595 96.716L106.527 99.5741M92.2195 111.888C92.0573 110.604 92.3425 107.682 94.7804 106.268C97.2183 104.854 103.627 101.216 106.527 99.5741M92.2195 111.888C92.7702 113.298 93.3116 114.681 93.789 115.898M106.527 99.5741L108.255 102.131M93.789 115.898C94.075 116.627 94.338 117.297 94.5664 117.879C95.4324 119.445 98.0154 122.655 101.419 122.964C104.823 123.273 103.063 122.165 101.757 121.573C98.697 120.636 93.3544 115.663 99.9872 111.375L110.518 105.478L108.255 102.131M93.789 115.898C93.5566 114.271 93.7243 110.638 96.2543 109.118C98.7843 107.598 105.309 103.827 108.255 102.131" stroke="black" stroke-width="0.75"/>
<path d="M150.778 171.758C145.201 169.884 148.025 163.359 150.135 160.331C153.3 159.364 159.7 157.523 159.975 157.902C160.25 158.281 160.258 158.981 160.227 159.283C163.574 159.124 163.426 161.866 162.933 163.257C163.562 163.158 164.442 163.344 165.656 164.002C169.352 166.007 166.957 168.232 165.297 169.095C164.508 168.13 162.319 167.862 161.324 167.849C161.055 171.567 158.032 170.566 155.528 169.436C153.024 168.305 153.766 173.134 150.778 171.758Z" fill="#646464"/>
<path d="M158.656 167.041C157.997 163.307 161.195 162.916 161.523 165.814C161.414 164.848 161.648 163.458 162.933 163.257M162.933 163.257C163.562 163.158 164.442 163.344 165.656 164.002C169.352 166.007 166.957 168.232 165.297 169.095C164.508 168.13 162.319 167.862 161.324 167.849C161.055 171.567 158.032 170.566 155.528 169.436C153.024 168.305 153.766 173.134 150.778 171.758C145.201 169.884 148.025 163.359 150.135 160.331C153.3 159.364 159.7 157.523 159.975 157.902C160.25 158.281 160.258 158.981 160.227 159.283C163.574 159.124 163.426 161.866 162.933 163.257Z" stroke="black" stroke-width="0.75"/>
<path d="M135.262 109.448C135.333 114.914 134.106 115.591 132.367 115.184C130.977 114.858 130.154 114.093 129.917 113.751C128.313 115.144 125.573 116.149 123.609 116.636L120.75 109.095C119.634 109.442 118.654 108.819 123.657 103.544C128.66 98.2702 131.353 102.736 132.073 105.628C133.657 106.026 135.233 107.263 135.262 109.448Z" fill="#CFCFCF"/>
<path d="M129.917 113.751C128.313 115.144 125.573 116.149 123.609 116.636L120.75 109.095C119.634 109.442 118.654 108.819 123.657 103.544C128.66 98.2702 131.353 102.736 132.073 105.628M129.917 113.751C131.358 112.501 131.883 110.937 130.112 109.155C127.301 106.328 129.695 105.031 132.073 105.628M129.917 113.751C130.154 114.093 130.977 114.858 132.367 115.184C134.106 115.591 135.333 114.914 135.262 109.448C135.233 107.263 133.657 106.026 132.073 105.628" stroke="black" stroke-width="0.75"/>
<path d="M122.586 118.472C128.237 120.688 124.949 123.664 122.598 124.875C120.646 126.006 116.155 127.688 113.804 125.365C110.865 122.462 115.34 111.766 115.243 111.275C115.147 110.785 121.655 107.376 123.783 109.808C125.486 111.753 124.321 113.801 123.526 114.582C127.774 114.509 124.669 117.145 122.586 118.472Z" fill="#6D6D6D" stroke="black" stroke-width="0.75"/>
<path d="M121.58 144.094C117.837 146.288 110.787 148.55 111.514 140.758C111.115 143.433 109.87 147.599 107.234 147.895C103.563 148.307 100.762 142.037 100.664 139.743C94.685 138.265 95.5 132.581 96.1802 129.86C96.8603 127.139 99.8162 128.953 101.094 127.216C102.371 125.479 100.834 123.503 102.772 120.539C101.272 117.473 100.235 111.197 108.078 110.624C117.883 109.907 117.929 115.002 117.861 115.815C117.794 116.628 114.004 122.458 119.64 124.8C124.148 126.673 122.811 138.443 121.58 144.094Z" fill="#DDDDDD"/>
<path d="M100.664 139.743C100.762 142.037 103.563 148.307 107.234 147.895C110.171 147.565 111.381 142.434 111.619 139.91C110.294 148.707 117.707 146.365 121.58 144.094C122.811 138.443 124.148 126.673 119.64 124.8C114.004 122.458 117.794 116.628 117.861 115.815C117.929 115.002 117.883 109.907 108.078 110.624C100.235 111.197 101.272 117.473 102.772 120.539M100.664 139.743C100.566 137.449 103.287 136.793 104.037 137.735C103.967 136.144 103.815 134.674 103.608 132.946C103.01 127.952 111.54 127.231 110.246 132.731C112.073 131.588 115.466 128.772 114.422 126.657C113.118 124.012 104.71 117.574 102.772 120.539M100.664 139.743C94.685 138.265 95.5 132.581 96.1802 129.86C96.8603 127.139 99.8162 128.953 101.094 127.216C102.371 125.479 100.834 123.503 102.772 120.539" stroke="black" stroke-width="0.75"/>
<path d="M151.147 161.886C148.71 160.465 150.726 157.045 152.039 155.513C146.764 158.692 139.054 148.701 135.859 143.308C135.786 144.929 136.996 145.783 130.002 148.909C123.008 152.034 120.988 143.902 120.853 139.445C114.758 146.885 110.194 137.734 116.688 132.337C120.791 135.532 122.26 130.673 120.307 128.975C119.392 128.179 118.226 125.981 120.892 123.556C123.558 121.132 126.608 124.379 127.799 126.306C127.198 125.18 126.563 123.004 126.321 122.057C125.463 117.964 126.98 119.182 127.846 120.303C127.289 119.005 128.647 115.304 131.212 116.43C133.265 117.331 133.163 120.315 132.855 121.694C135.199 121.872 139.472 123.575 137.809 128.964C135.695 134.739 128.915 134.114 126.32 133.156C125.088 136.873 126.706 138.973 127.669 139.559C127.815 137.943 128.359 134.928 129.365 135.803C130.134 136.471 130.853 137.504 131.299 138.239C130.786 136.966 131.087 134.95 133.371 134.404C136.893 133.561 138.025 135.467 138.151 136.525C138.494 137.134 139.617 138.543 141.362 139.316C143.107 140.09 143.305 141.315 143.185 141.831C145.089 140.604 146.007 142.463 146.228 143.546C146.96 150.459 151.235 151.134 153.281 150.607C150.816 147.36 153.246 141.221 156.898 144.976C159.818 147.98 156.751 151.629 154.853 153.078C159.254 155.555 158.319 158.784 157.301 160.088C156.266 161.279 153.585 163.307 151.147 161.886Z" fill="#9A9A9A" stroke="black" stroke-width="0.75"/>
<path d="M122.173 99.2295L118.332 101.643L109.764 89.3719L111.79 88.1111L115.596 90.0833L122.173 99.2295Z" fill="#6F6F6F" stroke="black" stroke-width="0.75"/>
<path d="M127.335 181.93L128.797 176.17L115.384 169.74L114.136 175.454L127.335 181.93Z" fill="#878787" stroke="black" stroke-width="0.75"/>
<path d="M134.344 64.3061C128.301 65.6199 114.552 70.8694 107.899 81.3574C106.528 84.1641 108.303 85.5053 109.361 85.825L108.325 87.0166L101.085 82.1758C100.382 79.3752 100.484 72.5992 106.522 67.8993L98.1948 55.9531C100.171 55.4626 104.254 53.5958 104.777 50.0525C107.871 50.2817 115.206 51.8661 119.799 56.3699L136.586 48.3566L146.978 52.0444C144.435 53.7663 139.961 58.7403 142.403 64.8617L134.344 64.3061Z" fill="#494949"/>
<path d="M106.522 67.8993C110.499 65.1963 119.755 59.7367 124.962 59.5217L134.344 64.3061M106.522 67.8993C100.484 72.5992 100.382 79.3752 101.085 82.1758L108.325 87.0166L109.361 85.825C108.303 85.5053 106.528 84.1641 107.899 81.3574C114.552 70.8694 128.301 65.6199 134.344 64.3061M106.522 67.8993L98.1948 55.9531C100.171 55.4626 104.254 53.5958 104.777 50.0525C107.871 50.2817 115.206 51.8661 119.799 56.3699M134.344 64.3061L142.403 64.8617C139.961 58.7403 144.435 53.7663 146.978 52.0444L136.586 48.3566L119.799 56.3699M119.799 56.3699C116.326 57.535 109.198 60.2883 108.471 61.9806" stroke="black" stroke-width="0.75"/>
<path d="M178.587 145.303C185.786 137.288 185.199 131.97 184.005 130.312C183.134 128.974 179.274 128.629 170.798 137.951C162.323 147.273 163.71 151.721 165.462 152.78C166.838 153.627 171.388 153.317 178.587 145.303Z" fill="#D9D9D9" stroke="black" stroke-width="0.75"/>
</svg>
