<svg width="965" height="700" viewBox="0 0 965 700" fill="none" xmlns="http://www.w3.org/2000/svg">
<g clip-path="url(#clip0_297_54)">
<rect width="965" height="700" fill="white"/>
<rect x="121" y="448" width="421" height="398" fill="#29E4FF"/>
<rect x="387" y="-27" width="421" height="398" fill="#FF29E6"/>
<rect x="599" y="411.204" width="320" height="398" transform="rotate(-16 599 411.204)" fill="#AA7FFF"/>
<rect x="523.266" y="259" width="363" height="179" transform="rotate(13 523.266 259)" fill="#7129FF"/>
<rect x="287.607" y="253.062" width="473.264" height="267.931" rx="133.965" transform="rotate(36 287.607 253.062)" fill="#9819FF"/>
<rect x="190" y="-97" width="284" height="316" fill="#FFE6B2"/>
<rect x="784" y="27" width="284" height="316" fill="#FFE6B2"/>
<rect x="279" y="57" width="155" height="316" fill="#C8B2FF"/>
<rect x="-270" y="432.69" width="348" height="426" transform="rotate(-40 -270 432.69)" fill="#FFE6B2"/>
<rect x="-153" y="106.69" width="348" height="426" transform="rotate(-40 -153 106.69)" fill="#E9B2FF"/>
<g filter="url(#filter0_b_297_54)">
<rect width="965" height="700" fill="black" fill-opacity="0.13"/>
</g>
</g>
<defs>
<filter id="filter0_b_297_54" x="-300" y="-300" width="1565" height="1300" filterUnits="userSpaceOnUse" color-interpolation-filters="sRGB">
<feFlood flood-opacity="0" result="BackgroundImageFix"/>
<feGaussianBlur in="BackgroundImageFix" stdDeviation="150"/>
<feComposite in2="SourceAlpha" operator="in" result="effect1_backgroundBlur_297_54"/>
<feBlend mode="normal" in="SourceGraphic" in2="effect1_backgroundBlur_297_54" result="shape"/>
</filter>
<clipPath id="clip0_297_54">
<rect width="965" height="700" fill="white"/>
</clipPath>
</defs>
</svg>
